<?xml version="1.0" encoding="utf-8"?>
<!-- Generator: Adobe Illustrator 16.0.0, SVG Export Plug-In . SVG Version: 6.00 Build 0)  -->
<!DOCTYPE svg PUBLIC "-//W3C//DTD SVG 1.0//EN" "http://www.w3.org/TR/2001/REC-SVG-20010904/DTD/svg10.dtd">
<svg version="1.0" id="Layer_1" xmlns="http://www.w3.org/2000/svg" xmlns:xlink="http://www.w3.org/1999/xlink" x="0px" y="0px"
	 width="800px" height="800px" viewBox="0 0 800 800" enable-background="new 0 0 800 800" xml:space="preserve">
<g>
	<path fill-rule="evenodd" clip-rule="evenodd" fill="#141417" d="M545.748,423.424c-38.596,19.291-90.959,85.447-101.983,129.554
		c-13.78,55.12-8.268,66.145,49.608,35.828c33.082-16.536,85.447-68.9,99.227-101.983
		C617.415,423.424,614.658,390.352,545.748,423.424 M256.334,423.424c35.828,19.291,88.203,85.447,99.228,129.554
		c16.536,55.12,8.268,66.145-49.62,35.828c-33.072-16.536-85.437-68.9-96.471-101.983
		C181.912,423.424,184.667,390.352,256.334,423.424z M231.53,117.479c46.853-46.857,110.251-79.935,168.128-79.935l0,0
		c57.886,0,121.275,33.077,168.137,79.935c38.584,38.585,66.155,74.418,71.667,129.549c11.024,68.906,8.268,173.641,0,209.479
		c-5.512,38.583-35.838,85.446-63.398,132.299c-55.131,90.959-129.544,173.65-176.406,173.65l0,0
		c-46.853,0-118.52-82.691-173.64-173.65c-30.328-46.853-57.888-93.716-66.156-132.299c-8.268-33.083-8.268-135.062-2.755-203.967
		C165.376,194.652,190.18,158.819,231.53,117.479z"/>
</g>
</svg>
